PathFileType	4	(X/Y/Z)	Patient4_TMGait_0pt2_03_left_25.trc.trc
DataRate	CameraRate	NumFrames	NumMarkers	Units	OrigDataRate	OrigDataStartFrame	OrigNumFrames
48.611111111111	48.611111111111	4	33	mm	48.611111111111	18	       141
Frame#	Time	Sacral			L.Shoulder			Chest			R.Shoulder			Neck			R.ASIS			L.ASIS			R.Thigh.Superior			R.Thigh.Lateral			R.Thigh.Inferior			R.Patella			L.Thigh.Superior			L.Thigh.Lateral			L.Thigh.Inferior			L.Patella			L.Shank.Superior			L.Shank.Lateral			L.Shank.Inferior			R.Shank.Superior			R.Shank.Lateral			R.Shank.Inferior			R.Heel			R.Midfoot.Superior			R.Midfoot.Lateral			R.Toe			L.Heel			L.Midfoot.Lateral			L.Midfoot.Superior			L.Toe			L.Elbow			L.Wrist			R.Elbow			R.Wrist			
		X1	Y1	Z1	X2	Y2	Z2	X3	Y3	Z3	X4	Y4	Z4	X5	Y5	Z5	X6	Y6	Z6	X7	Y7	Z7	X8	Y8	Z8	X9	Y9	Z9	X10	Y10	Z10	X11	Y11	Z11	X12	Y12	Z12	X13	Y13	Z13	X14	Y14	Z14	X15	Y15	Z15	X16	Y16	Z16	X17	Y17	Z17	X18	Y18	Z18	X19	Y19	Z19	X20	Y20	Z20	X21	Y21	Z21	X22	Y22	Z22	X23	Y23	Z23	X24	Y24	Z24	X25	Y25	Z25	X26	Y26	Z26	X27	Y27	Z27	X28	Y28	Z28	X29	Y29	Z29	X30	Y30	Z30	X31	Y31	Z31	X32	Y32	Z32	X33	Y33	Z33	

18	52.539714285714	886.451850808926	1008.571575282332	591.885757309748	1014.063478099412	1427.421908426396	356.380771119129	1159.789934852448	1355.198637696621	477.564576520801	1141.581799825788	1438.388535027772	664.079267505489	1047.637284924354	1490.439943447001	507.147325008591	1134.381361420160	933.238951485691	641.170742210303	1049.594995573511	961.294086886649	380.197228354321	1151.309873597466	728.424439926755	600.366039134281	1079.974273877122	619.442333523263	673.720963656252	1132.684550441944	567.721474756098	576.304632618083	1128.234036372152	477.713775670261	581.601416411283	1131.634878193771	778.656220248713	395.578286322172	1066.928948977229	638.509604664747	323.725637095154	1183.103464025275	590.771981541798	375.456859007939	1207.460504708930	523.986479004615	368.231339881728	1186.397291415737	450.441231176063	354.813342217673	1108.652195271283	328.329001774660	297.481438538396	1190.976957979577	219.083637418075	342.117678361120	1087.715332376592	391.261203425387	593.690339123695	1012.352424343883	294.292448218412	662.431639324175	1032.130209795735	198.746326996343	593.408190786024	878.161807213658	42.873080790132	573.255089391321	1051.017781460777	96.183800763176	601.657764923899	963.913871867295	36.689463755612	644.971909515163	1171.595283820266	45.248067627535	625.835238870064	1092.818329897249	45.419257145271	373.410114107207	1166.295923384631	45.550620079734	292.576117736412	1244.295282857974	117.598180729270	313.426452680998	1375.467668355599	78.306068869403	284.390877380048	823.650255423542	1125.291653590563	324.284719641236	738.343066937110	888.179047088249	399.421474254295	1354.353707452512	1183.927149853965	769.761495689902	1579.758211414686	1257.271625511820	671.328106998531	
19	52.560285714286	887.870921289296	1009.337044937860	589.444326321028	1014.115036573540	1427.933378497113	353.600237234606	1160.477284012339	1355.841440116456	474.128945330230	1142.903671423230	1439.157533259084	660.555686386545	1048.163339258036	1490.948634566157	504.404487032787	1135.615972224436	933.694585972004	638.746059584941	1050.793010296748	961.406149676164	377.771210340703	1149.814108495910	727.996149484584	598.714695720423	1077.318695543612	619.972184622920	672.866092052377	1129.093460039540	567.252571611452	575.710556610506	1123.505313985390	477.605310573161	581.446576295478	1130.564003136815	776.216881193138	392.483744302861	1062.540428464935	636.684196197508	322.083780938495	1178.497511708848	587.811436509396	372.715919394798	1201.376430713264	521.945015739106	366.771944205066	1182.256870554321	448.985182510747	353.316335323106	1107.454404673883	325.040227941915	295.922720015239	1192.048222975448	217.704588626424	341.038345180909	1083.229902865904	391.413715006522	593.602862660462	1007.862153058516	294.486360174367	662.397333818524	1027.717278975287	198.847429969009	593.451833196478	873.977114710600	42.867997114820	573.273169941592	1046.789934810157	96.148645306688	601.716546464962	959.713079945639	36.677276192612	645.049537038811	1167.417005935644	45.238601907175	625.873236858063	1097.050284635725	43.035102836640	371.931217336551	1171.199075432255	43.654334711404	291.735108378657	1248.067921202181	116.524456898883	313.136029546199	1379.827069436078	78.572488623770	285.532982608591	823.449606058687	1126.026870603705	322.136175263567	738.195201033050	889.077519404220	398.032133194425	1360.435907137404	1189.332565171777	762.906630907527	1579.482288503128	1272.836493448094	659.423823641404	
20	52.580857142857	889.333058949964	1009.520547129499	586.632027643481	1014.488017581935	1427.828004164180	350.359839234540	1161.334913119373	1355.983249609033	470.487632094691	1144.078994440709	1439.487304146102	656.784306691085	1048.800136904229	1490.977550106800	501.188525566268	1137.019982425489	933.778265929175	636.217391660476	1052.267958417686	960.955046697839	375.196750500706	1149.076986433117	727.382688130763	596.873603918854	1075.590048219074	620.151233096908	671.649622738067	1126.652929801114	566.565338752658	574.797038051553	1120.079054217539	477.089257816969	580.953143945105	1130.203913522069	773.515156279669	389.347593870861	1059.071106377056	634.582887617585	320.625704475597	1174.921350948087	584.790988700377	370.182592589345	1196.202094131257	519.479986588879	365.443716900218	1178.490798108468	447.025723427784	351.991519591506	1105.492218360319	322.025926395482	295.028662716777	1191.432028989309	216.076508746330	340.531757060252	1079.736547017258	391.208369582717	593.178971597311	1004.110534289740	294.596550377111	662.118555728919	1023.706012953375	198.750189662243	593.346062258383	869.830833435551	42.906609923402	573.284705260422	1042.591711951114	96.083549749401	601.740618742476	955.545916041462	36.677357036488	645.126482359769	1163.277887142862	45.125117559729	625.931987491720	1098.171226149905	41.602340680473	371.501790336816	1172.641733072245	42.213247021540	291.683405350860	1249.068909695631	114.995036357075	313.505575106058	1380.811035038111	77.200196506633	286.798601184147	824.043451650045	1125.797606283523	318.953148510328	738.930976903340	888.775207261835	394.974910482880	1365.848047399391	1194.008072033664	756.230802243479	1578.293103606910	1286.924074681475	648.105514850378	
21	52.601428571429	890.811638033575	1009.203440855528	583.500010204719	1015.190855071905	1427.174337572438	346.674939609469	1162.378576725225	1355.663063255368	466.635950392748	1145.169759266944	1439.416811711003	652.765449977142	1049.579397030643	1490.580895074932	497.510675402845	1138.563269161696	933.512361129902	633.546354299286	1053.924426174946	960.031866941412	372.466691106358	1149.077695290288	726.597975724752	594.801057445654	1074.774794641473	619.992256552043	670.041883720318	1125.337619581523	565.669194463375	573.519157988636	1117.930806936139	476.180361736911	580.078242969681	1130.466546917394	770.636358265120	386.216287157158	1056.506137537437	632.314164234048	319.298343360290	1172.306211867911	581.792146108659	367.909565239074	1191.970878012599	516.727502374638	364.241389084858	1175.196474327869	444.671133965641	350.819302988316	1103.029794727140	319.209667392028	294.623842768580	1189.537074448855	214.148126721357	340.484828590529	1077.208141485179	390.661924569221	592.390891064809	1001.085545720089	294.638822246904	661.583299766447	1020.094233970251	198.472084559387	593.079700565378	865.724457492347	42.993678638428	573.291268614675	1038.431739502432	95.995099319809	601.727608062155	951.416864548510	36.691400253343	645.195833080485	1159.177308905055	44.915956595208	626.007782753102	1096.742218904055	40.753803344710	371.867147225573	1171.281696008746	41.014433196110	292.202017417176	1247.862369666216	113.000921045557	314.403519432780	1379.181088590402	74.425442353882	288.106570446963	825.442727464173	1124.679409022771	314.764826285339	740.597633140794	887.346325714238	390.298747011089	1370.604988265924	1197.890043175997	749.782591932341	1576.358893735473	1299.411498407844	637.435763847384	
